<?xml version="1.0" encoding="UTF-8" standalone="no"?>
<!-- Created with Inkscape (http://www.inkscape.org/) -->

<svg
    xmlns:dc="http://purl.org/dc/elements/1.1/"
    xmlns:cc="http://creativecommons.org/ns#"
    xmlns:rdf="http://www.w3.org/1999/02/22-rdf-syntax-ns#"
    xmlns:svg="http://www.w3.org/2000/svg"
    xmlns="http://www.w3.org/2000/svg"
    xmlns:sodipodi="http://sodipodi.sourceforge.net/DTD/sodipodi-0.dtd"
    xmlns:inkscape="http://www.inkscape.org/namespaces/inkscape"
    width="200"
    height="200"
    viewBox="0 0 49.999984 52.842976"
    version="1.1"
    id="svg4828"
    inkscape:version="0.92.3 (2405546, 2018-03-11)"
    sodipodi:docname="warg.svg">
  <defs
      id="defs4822"/>
  <sodipodi:namedview
      id="base"
      pagecolor="#ffffff"
      bordercolor="#666666"
      borderopacity="1.0"
      inkscape:pageopacity="0.0"
      inkscape:pageshadow="2"
      inkscape:zoom="0.98994949"
      inkscape:cx="-39.901031"
      inkscape:cy="296.50118"
      inkscape:document-units="mm"
      inkscape:current-layer="layer1"
      showgrid="false"
      inkscape:window-width="1868"
      inkscape:window-height="1028"
      inkscape:window-x="26"
      inkscape:window-y="26"
      inkscape:window-maximized="1"/>
  <metadata
      id="metadata4825">
    <rdf:RDF>
      <cc:Work
          rdf:about="">
        <dc:format>image/svg+xml</dc:format>
        <dc:type
            rdf:resource="http://purl.org/dc/dcmitype/StillImage"/>
        <dc:title></dc:title>
      </cc:Work>
    </rdf:RDF>
  </metadata>
  <g
      inkscape:label="Layer 1"
      inkscape:groupmode="layer"
      id="layer1"
      transform="translate(-22.961012,-165.67205)">
    <path
        style="fill:#4d4d4d;stroke-width:0.08962741"
        d="m 47.250042,218.1051 c -1.59461,-0.96888 -3.704172,-1.88659 -5.353273,-2.3288 l -0.915851,-0.24559 -0.517645,-0.94549 c -0.663477,-1.21187 -1.771271,-2.88019 -2.725266,-4.10423 -0.939604,-1.20557 -2.801344,-3.13675 -3.976891,-4.12523 -2.453509,-2.06307 -5.743205,-3.83496 -8.405589,-4.52741 -0.405024,-0.10534 -0.763709,-0.21509 -0.797076,-0.24388 -0.07969,-0.0688 0.298657,-2.62704 0.592242,-4.00454 0.213604,-1.00222 0.665575,-2.71619 0.984483,-3.73336 0.107853,-0.344 0.110842,-0.42573 0.01557,-0.42573 -0.135345,0 -2.018034,0.92794 -2.71919,1.34023 -0.258799,0.15218 -0.470544,0.26187 -0.470544,0.24377 0,-0.10516 0.921934,-2.75052 1.207997,-3.46617 0.970889,-2.42893 2.55749,-5.30349 3.865367,-7.00318 l 0.390206,-0.5071 -0.481415,-1.01752 c -2.309294,-4.88093 -2.494926,-11.00866 -0.499866,-16.50059 0.156678,-0.4313 0.322576,-0.80748 0.368663,-0.83597 0.04609,-0.0285 0.61702,0.21576 1.268739,0.54276 1.290734,0.64762 3.253781,1.91835 4.456343,2.88469 1.778411,1.42908 4.157262,3.9793 5.350524,5.73598 0.279172,0.41099 0.533077,0.74725 0.564235,0.74725 0.03116,0 0.417125,-0.1231 0.857704,-0.27356 2.375524,-0.81123 4.337275,-1.15721 6.940531,-1.22405 3.021992,-0.0776 5.290132,0.23485 7.968751,1.09774 1.130667,0.36423 1.301326,0.3985 1.370346,0.27517 0.04336,-0.0775 0.386059,-0.55503 0.761552,-1.06121 1.862512,-2.51077 4.287706,-4.87692 6.704492,-6.54127 1.500284,-1.03319 3.932737,-2.32054 4.080198,-2.1594 0.08888,0.0971 0.557504,1.41134 0.847676,2.37722 0.290248,0.96613 0.630894,2.69884 0.757593,3.85351 0.122315,1.11469 0.122834,3.59048 0.001,4.7125 -0.232328,2.13943 -0.911429,4.5871 -1.788647,6.4468 l -0.441743,0.9365 0.359478,0.4866 c 1.984793,2.68672 3.824401,6.38899 4.863057,9.78707 l 0.227203,0.74332 -0.464479,-0.27849 c -0.612845,-0.36746 -2.775566,-1.43651 -2.818743,-1.39334 -0.0186,0.0186 0.08846,0.43085 0.237883,0.91614 0.636212,2.06627 1.499436,6.31775 1.427483,7.03049 -0.02754,0.27282 -0.04937,0.28498 -1.058839,0.59006 -4.015057,1.21339 -7.46012,3.44755 -10.685952,6.92997 -1.524192,1.64542 -3.032497,3.73656 -4.141088,5.74128 l -0.523252,0.94622 -0.895145,0.24292 c -1.663903,0.45153 -3.694766,1.33339 -5.322404,2.31114 -0.401207,0.24101 -0.744032,0.43752 -0.761833,0.4367 -0.0178,-6.7e-4 -0.334859,-0.18528 -0.704572,-0.40992 z m 1.359937,-3.25821 c 0.869429,-0.46793 2.363188,-1.10072 3.493428,-1.47992 0.557077,-0.1869 0.948732,-0.37019 1.002349,-0.4691 0.0484,-0.0893 0.389725,-0.64631 0.758497,-1.23785 3.011444,-4.83058 7.09258,-8.65835 11.649954,-10.92668 0.627096,-0.31212 1.472912,-0.70158 1.879598,-0.86548 0.406682,-0.16389 0.739425,-0.32284 0.739425,-0.3532 0,-0.10381 -7.826531,-3.86004 -7.895365,-3.78928 -0.03776,0.0388 -0.499028,1.24023 -1.025038,2.66978 -0.52601,1.42956 -0.9859,2.6307 -1.021976,2.6692 -0.03608,0.0385 -0.36482,-0.0718 -0.73054,-0.24506 -0.936446,-0.44368 -1.922938,-0.6764 -2.867174,-0.6764 -2.175455,0 -3.663465,1.25807 -4.310111,3.64407 -0.164656,0.60755 -0.196136,1.02203 -0.232172,3.05663 l -0.04169,2.35377 0.742579,0.76078 c 0.549583,0.56305 0.697684,0.76183 0.569834,0.76483 -0.09501,0.002 -0.609275,0.27447 -1.142808,0.60499 l -0.970063,0.60093 -0.538194,1.2996 c -0.296007,0.71478 -0.578451,1.40043 -0.627653,1.52367 -0.0803,0.20114 -0.153276,0.0682 -0.713135,-1.2996 l -0.623677,-1.52367 -0.987574,-0.60498 c -0.543165,-0.33274 -1.049261,-0.60499 -1.124656,-0.60499 -0.07779,0 0.179002,-0.3392 0.593704,-0.78424 l 0.730785,-0.78424 -0.04104,-2.2855 c -0.03506,-1.95238 -0.06864,-2.39 -0.230342,-3.00252 -0.441176,-1.6711 -1.240542,-2.74295 -2.490901,-3.33998 -0.694434,-0.33158 -0.711614,-0.33473 -1.821389,-0.33379 -1.253257,0.001 -1.728802,0.10742 -2.891032,0.64649 -0.382338,0.17734 -0.708708,0.30587 -0.725268,0.28563 -0.01656,-0.0203 -0.466292,-1.2266 -0.999408,-2.6808 -0.533115,-1.45421 -0.997143,-2.67616 -1.031174,-2.71546 -0.06243,-0.0721 -7.886858,3.68829 -7.886858,3.79039 0,0.0302 0.332742,0.18941 0.739426,0.35373 5.126286,2.07133 9.708823,5.97405 13.108665,11.16399 0.452092,0.69013 0.914582,1.42267 1.027755,1.62787 0.197555,0.3582 0.249107,0.38821 1.291582,0.75196 1.202997,0.41977 2.928742,1.17012 3.550603,1.54379 0.221828,0.1333 0.410311,0.24274 0.418849,0.24321 0.0085,3.3e-4 0.311031,-0.15819 0.672205,-0.35257 z M 43.25958,194.37697 c -0.212377,-1.42129 -0.402059,-2.60007 -0.421515,-2.61953 -0.01946,-0.0195 -1.565575,-0.45639 -3.43582,-0.97096 -2.937304,-0.80815 -3.624026,-0.97449 -3.437788,-0.83267 0.02054,0.0156 0.575325,0.44769 1.232857,0.96012 l 1.195512,0.93169 -0.05509,0.4515 c -0.06617,0.54233 0.120993,1.33142 0.433034,1.82572 0.625011,0.99009 1.905651,1.47387 3.03355,1.14598 0.274442,-0.0798 0.520585,-0.14506 0.546984,-0.14506 0.0264,0 0.277389,0.37308 0.557755,0.82906 0.531226,0.86396 0.676563,1.07415 0.714228,1.03288 0.01233,-0.0135 -0.151333,-1.18745 -0.36371,-2.60873 z m 9.598517,1.79991 c 0.716895,-1.15335 0.634707,-1.09324 1.250151,-0.91432 1.255171,0.36489 2.581476,-0.22402 3.173715,-1.40919 0.24084,-0.48196 0.275233,-0.64369 0.275233,-1.29426 v -0.74347 l 1.163821,-0.90672 c 1.190677,-0.92764 1.41191,-1.1347 1.109986,-1.03887 -0.09272,0.0294 -1.637554,0.45635 -3.432969,0.94872 -1.795419,0.49238 -3.289974,0.93662 -3.321237,0.9872 -0.03127,0.0506 -0.209534,1.15053 -0.396151,2.44431 -0.18662,1.29379 -0.359914,2.44308 -0.385103,2.554 -0.0252,0.11091 -0.02487,0.20166 6.77e-4,0.20166 0.02558,0 0.278408,-0.37308 0.561833,-0.82906 z m -21.515643,-17.66502 1.163878,-1.37525 1.067194,-0.0588 c 0.586956,-0.0323 1.484351,-0.0588 1.99421,-0.0588 0.509859,0 0.927016,-0.0278 0.927016,-0.0619 0,-0.034 -0.352908,-0.52717 -0.784239,-1.09587 -0.924966,-1.21953 -2.685956,-3.06506 -3.861654,-4.04704 -1.027568,-0.85825 -2.1382,-1.63443 -2.198677,-1.53658 -0.02472,0.04 -0.117529,0.45394 -0.206243,0.91988 -0.128203,0.67333 -0.161492,1.3069 -0.162243,3.08784 -8.13e-4,1.9452 0.02522,2.37661 0.197463,3.2714 0.20967,1.08922 0.553084,2.33031 0.644802,2.33031 0.03004,0 0.578361,-0.61886 1.218493,-1.37524 z m 34.715984,0.68063 c 0.724453,-2.71232 0.84186,-5.44761 0.356026,-8.29456 -0.05716,-0.33496 -0.132465,-0.62665 -0.167339,-0.6482 -0.06923,-0.0428 -1.209765,0.75085 -1.921813,1.33729 -1.46337,1.20523 -3.029682,2.83866 -4.175806,4.35476 -0.390575,0.51665 -0.710134,0.97039 -0.710134,1.0083 0,0.0379 0.457545,0.0689 1.016773,0.0689 0.559224,0 1.449325,0.0265 1.978001,0.0588 l 0.961232,0.0588 1.176198,1.37523 c 0.646906,0.75637 1.204352,1.37522 1.238766,1.37522 0.03441,0 0.146055,-0.31257 0.248096,-0.69461 z"
        id="path4811"
        inkscape:connector-curvature="0"/>
  </g>
</svg>
